<svg width="42" height="53" viewBox="0 0 42 53" fill="none" xmlns="http://www.w3.org/2000/svg">
<path d="M1.5 50.5V0H21H40.5V50.5L22 43.5L1.5 50.5Z" fill="#1A1A1A" fill-opacity="0.7"/>
<path d="M0.5 1.19209e-07V52L22.0513 44.5149L41.5 52V0" stroke="#A3A3A3" stroke-opacity="0.4"/>
<path d="M26.5 23H21.5V28C21.5 28.55 21.05 29 20.5 29C19.95 29 19.5 28.55 19.5 28V23H14.5C13.95 23 13.5 22.55 13.5 22C13.5 21.45 13.95 21 14.5 21H19.5V16C19.5 15.45 19.95 15 20.5 15C21.05 15 21.5 15.45 21.5 16V21H26.5C27.05 21 27.5 21.45 27.5 22C27.5 22.55 27.05 23 26.5 23Z" fill="white"/>
</svg>
