<svg width="20" height="20" viewBox="0 0 20 20" fill="none" xmlns="http://www.w3.org/2000/svg">
<path d="M9.99984 1.66663C5.39984 1.66663 1.6665 5.39996 1.6665 9.99996C1.6665 14.6 5.39984 18.3333 9.99984 18.3333C14.5998 18.3333 18.3332 14.6 18.3332 9.99996C18.3332 5.39996 14.5998 1.66663 9.99984 1.66663ZM9.99984 14.1666C9.5415 14.1666 9.1665 13.7916 9.1665 13.3333V9.99996C9.1665 9.54163 9.5415 9.16663 9.99984 9.16663C10.4582 9.16663 10.8332 9.54163 10.8332 9.99996V13.3333C10.8332 13.7916 10.4582 14.1666 9.99984 14.1666ZM10.8332 7.49996H9.1665V5.83329H10.8332V7.49996Z" fill="#C3C3C3"/>
</svg>
