<svg width="61" height="31" viewBox="0 0 61 31" fill="none" xmlns="http://www.w3.org/2000/svg">
<path d="M61 2.64263C60.8345 1.28896 59.8299 0.210052 58.5504 0C52.9427 0 8.0817 0 2.47395 0C1.07254 0.230209 0 1.50219 0 3.03515C0 5.49955 0 25.2105 0 27.6738C0 29.3712 1.3123 30.7472 2.93224 30.7472C8.4477 30.7472 52.5767 30.7472 58.0922 30.7472C59.5837 30.7472 60.8154 29.5792 61 28.0674C61 22.9827 61 5.18447 61 2.64263Z" fill="#F6C700"/>
<path d="M7.35693 6.17853H12.1977V24.8127H7.35693V6.17853Z" fill="black"/>
<path d="M21.3446 14.762C20.9287 11.9221 20.6974 10.3435 20.6518 10.0284C20.4492 8.50819 20.2561 7.18528 20.0715 6.05652C19.6525 6.05652 17.5615 6.05652 13.7954 6.05652V24.6907H18.0357L18.0506 12.3867L19.8349 24.6907H22.8552L24.5473 12.113L24.5632 24.6907H28.7897V6.05652H22.4659L21.3446 14.762Z" fill="black"/>
<path d="M36.7814 9.93294C36.8345 10.1706 36.862 10.7095 36.862 11.5518C36.862 12.2743 36.862 18.0539 36.862 18.7763C36.862 20.0165 36.7814 20.7761 36.6212 21.0562C36.46 21.3362 36.0314 21.4752 35.3365 21.4752C35.3365 20.252 35.3365 10.4666 35.3365 9.24337C35.8638 9.24337 36.2234 9.2996 36.4143 9.40993C36.6053 9.52132 36.7284 9.6953 36.7814 9.93294ZM38.9679 24.5008C39.5439 24.3746 40.0277 24.1518 40.4202 23.8346C40.8117 23.5163 41.0864 23.076 41.2434 22.5127C41.4015 21.9505 41.4949 20.8334 41.4949 19.1625C41.4949 18.509 41.4949 13.2736 41.4949 12.6191C41.4949 10.8559 41.4259 9.67408 41.3187 9.07363C41.2105 8.47212 40.9421 7.92577 40.5125 7.43565C40.0818 6.94553 39.4537 6.59332 38.6284 6.37902C37.802 6.16473 36.4547 6.05652 34.1112 6.05652C33.8704 6.05652 32.6674 6.05652 30.5 6.05652V24.6907H36.3645C37.716 24.6483 38.5838 24.5857 38.9679 24.5008Z" fill="black"/>
<path d="M49.3051 21.716C49.216 21.9526 48.8256 22.0725 48.5307 22.0725C48.2421 22.0725 48.0501 21.9579 47.9525 21.7277C47.8549 21.4986 47.8071 20.9755 47.8071 20.1566C47.8071 19.6643 47.8071 15.7242 47.8071 15.232C47.8071 14.3833 47.8496 13.8539 47.9355 13.6428C48.0204 13.4338 48.2071 13.3277 48.4956 13.3277C48.7906 13.3277 49.1863 13.4476 49.2881 13.6884C49.3889 13.9293 49.4398 14.4438 49.4398 15.232C49.4398 15.5503 49.4398 17.1416 49.4398 20.007C49.4091 20.9883 49.3645 21.558 49.3051 21.716ZM43.1436 24.5284H47.5016C47.683 23.8166 47.7827 23.4209 47.8029 23.3413C48.1975 23.8187 48.6314 24.1773 49.1078 24.4149C49.582 24.6536 50.2917 24.7724 50.8412 24.7724C51.6061 24.7724 52.266 24.5719 52.8229 24.1698C53.3788 23.7688 53.7332 23.2935 53.8838 22.7472C54.0344 22.1998 54.1098 21.3681 54.1098 20.2499C54.1098 19.7269 54.1098 15.545 54.1098 15.0219C54.1098 13.8974 54.0843 13.1633 54.0344 12.8185C53.9846 12.4737 53.8361 12.1226 53.5889 11.763C53.3417 11.4033 52.9821 11.1243 52.511 10.9249C52.04 10.7254 51.4841 10.6257 50.8433 10.6257C50.2864 10.6257 49.5735 10.7371 49.0982 10.9567C48.624 11.1763 48.1933 11.5094 47.8071 11.956C47.8071 11.5518 47.8071 9.53195 47.8071 5.89423H43.1436V24.5284Z" fill="black"/>
</svg>
